<?xml version="1.0"?>
<svg xmlns="http://www.w3.org/2000/svg" id="Layer_1" data-name="Layer 1" viewBox="0 0 64 64"><title>Icons8 RSL Colored Part 10</title><polygon points="40.06 41.99 24.46 41.99 17 55 22 55 16.86 63.19 38 51 31 51 40.06 41.99" style="fill:#f9e3ae;"/><polygon points="46.06 41.99 35.46 41.99 27 55 33 55 30.86 61.19 46 51 39 51 46.06 41.99" style="fill:#f9e3ae;"/><polygon points="28.46 41.99 24.46 41.99 16 55 20 55 28.46 41.99" style="fill:#faefde;"/><polygon points="39.46 41.99 35.46 41.99 27 55 31 55 39.46 41.99" style="fill:#faefde;"/><path d="M52.59,25a20,20,0,0,0-38.76-9.71A16,16,0,0,0,17,47H52a11,11,0,0,0,.59-22Z" style="fill:#c2cde7;"/><path d="M17.79,11.59a2.51,2.51,0,0,0,3.72-.21,15,15,0,0,1,23,0,2.51,2.51,0,0,0,3.72.21h0a2.52,2.52,0,0,0,.12-3.41,20,20,0,0,0-30.68,0,2.52,2.52,0,0,0,.12,3.41Z" style="fill:#d6dff2;"/><polygon points="6 42 61 42 55 47 13 47 6 42" style="fill:#acb7d0;"/><path d="M56.32,24.83a1,1,0,0,0-.13-.08c-.23-.08-.46-.14-.69-.21s-.42-.13-.63-.19-.45-.09-.67-.13l-.42-.08a21.59,21.59,0,0,0,0-6,21,21,0,0,0-40.13-5.35l0,0c-.16.38-.28.76-.42,1.14-.06.17-.13.32-.19.49A17,17,0,0,0,17.47,48h2.39l-3.73,6.5a1,1,0,0,0,0,1A1,1,0,0,0,17,56h3.19L16,62.66a1,1,0,0,0,.85,1.53,1,1,0,0,0,.5-.14l14-8h.27l-1.69,4.86A1,1,0,0,0,30.25,62a1,1,0,0,0,.61.21,1,1,0,0,0,.56-.17L46.56,51.83a1,1,0,0,0,.4-1.12A1,1,0,0,0,46,50H41l1.56-2h9.06A12.28,12.28,0,0,0,64,36.45,12.05,12.05,0,0,0,56.32,24.83ZM19.84,60.31l3-4.78A1,1,0,0,0,22,54H18.73l3.44-6h8.19l-4.2,6.46A1,1,0,0,0,27,56h.32ZM38.43,50.1l-.22.28a1,1,0,0,0-.11,1.06,1,1,0,0,0,.4.43A1.06,1.06,0,0,0,39,52h3.72l-9.94,6.69,1.16-3.36a1,1,0,0,0-.06-.8l-.07-.11A1,1,0,0,0,33,54H28.84l1.48-2.27L32.74,48h7.33ZM59,43h0V41a1,1,0,0,0-2,0v2a1,1,0,0,0,.85,1,10.48,10.48,0,0,1-6.18,2H17.47a15.75,15.75,0,0,1-8.6-2.54A1,1,0,0,0,9,43V41a1,1,0,0,0-2,0v1a14.72,14.72,0,0,1-5-10.2A15.1,15.1,0,0,1,12.45,16.72,21.07,21.07,0,0,0,12,21a1,1,0,0,0,2,0,18.94,18.94,0,0,1,.79-5.4h0c.1-.35.23-.68.35-1s.15-.43.24-.65A19,19,0,0,1,33,2a19.94,19.94,0,0,1,2.43.15A19.14,19.14,0,0,1,51.84,18.39,19.37,19.37,0,0,1,51.76,24a12,12,0,0,0-1.83.16,1,1,0,1,0,.34,2A10.1,10.1,0,0,1,52.59,26c.28,0,.55,0,.83.09l.27,0A10,10,0,0,1,62,36.38,9.75,9.75,0,0,1,59,43Z" style="fill:#8d6c9f;"/><path d="M43.22,10a1,1,0,0,0-.15-1.41,16.15,16.15,0,0,0-2.53-1.68,1,1,0,0,0-.94,1.76,14.14,14.14,0,0,1,2.22,1.47A1,1,0,0,0,43.22,10Z" style="fill:#8d6c9f;"/><path d="M36.39,5.36a16.22,16.22,0,0,0-11,1.57,1,1,0,0,0,1,1.76A14.19,14.19,0,0,1,36,7.31a1,1,0,1,0,.42-2Z" style="fill:#8d6c9f;"/><path d="M13,40a1,1,0,0,0-1,1v2a1,1,0,0,0,2,0V41A1,1,0,0,0,13,40Z" style="fill:#8d6c9f;"/><path d="M18,40a1,1,0,0,0-1,1v2a1,1,0,0,0,2,0V41A1,1,0,0,0,18,40Z" style="fill:#8d6c9f;"/><path d="M28,40a1,1,0,0,0-1,1v2a1,1,0,0,0,2,0V41A1,1,0,0,0,28,40Z" style="fill:#8d6c9f;"/><path d="M23,40a1,1,0,0,0-1,1v2a1,1,0,0,0,2,0V41A1,1,0,0,0,23,40Z" style="fill:#8d6c9f;"/><path d="M38,40a1,1,0,0,0-1,1v2a1,1,0,0,0,2,0V41A1,1,0,0,0,38,40Z" style="fill:#8d6c9f;"/><path d="M33,40a1,1,0,0,0-1,1v2a1,1,0,0,0,2,0V41A1,1,0,0,0,33,40Z" style="fill:#8d6c9f;"/><path d="M43,40a1,1,0,0,0-1,1v2a1,1,0,0,0,2,0V41A1,1,0,0,0,43,40Z" style="fill:#8d6c9f;"/><path d="M53,40a1,1,0,0,0-1,1v2a1,1,0,0,0,2,0V41A1,1,0,0,0,53,40Z" style="fill:#8d6c9f;"/><path d="M48,40a1,1,0,0,0-1,1v2a1,1,0,0,0,2,0V41A1,1,0,0,0,48,40Z" style="fill:#8d6c9f;"/><path d="M11.46,53.14a1,1,0,0,0-1.37.37L6.67,59.45a1,1,0,0,0,1.73,1l3.43-5.94A1,1,0,0,0,11.46,53.14Z" style="fill:#8d6c9f;"/><path d="M9,51.55a1,1,0,0,0,.87-.5l1-1.73a1,1,0,1,0-1.73-1L8.1,50A1,1,0,0,0,9,51.55Z" style="fill:#8d6c9f;"/><path d="M53.43,49.08a1,1,0,0,0-1.37.37l-3,5.2a1,1,0,0,0,1.73,1l3-5.2A1,1,0,0,0,53.43,49.08Z" style="fill:#8d6c9f;"/><path d="M47.82,59.08a1,1,0,0,0-1.37.37l-.5.87a1,1,0,0,0,1.73,1l.5-.87A1,1,0,0,0,47.82,59.08Z" style="fill:#8d6c9f;"/></svg>
